<svg xmlns="http://www.w3.org/2000/svg" viewBox="0 0 420 180" width="100%" height="100%" version="1.1">
	<title>XWP</title>
	<style>
		path {
			fill: #D21C21;
			fill-opacity: 1.0;
			fill-rule: nonzero;
			stroke: none;
			transition: fill 0.25s;
		}
	</style>
	<g>
		<path id="x" d="
			M 160.162 56.6236
			L 123.388 19.8490
			L 43.3109 99.9293
			L 123.388 180.009
			L 160.162 143.238
			L 116.853 99.9282
			L 160.162 56.6236
			Z

			M 73.5449 56.6214
			L 36.7735 19.8490
			L 00.0000 56.6236
			L 36.7746 93.3929
			L 73.5449 56.6214
			Z

			M 00.0000 143.238
			L 36.7746 180.009
			L 73.5470 143.239
			L 36.7746 106.466
			L 00.0000 143.238
			Z
		" />
		<path id="w" d="
			M 129.923 99.9303
			L 210.002 180.009
			L 246.775 143.238
			L 166.695 63.1578
			L 129.923 99.9303
			Z

			M 339.924 63.1578
			L 296.615 106.466
			L 253.310 63.1578
			L 216.535 99.9314
			L 296.615 180.009
			L 376.694 99.9303
			L 339.924 63.1578
			Z
		" />
		<path id="p" d="
			M 339.924 50.0904
			L 383.095 93.2633
			C 402.015 71.016 400.975 37.5977 379.963 16.585
			C 357.847 -5.52835 321.995 -5.52835 299.881 16.585
			L 259.842 56.6236
			L 296.615 93.3982
			L 339.924 50.0904
			Z

			M 383.228 106.467
			L 346.457 143.239
			L 383.228 180.009
			L 420.000 143.238
			L 383.228 106.467
			Z
		" />
	</g>
</svg>